# 3ds Max Wavefront OBJ Exporter v0.97b - (c)2007 guruware
# Datei erstellt: 09.11.2017 18:11:01

mtllib spikes.mtl

#
# object Pyramide001
#

v  -41.3484 40.0804 -4.5473
v  -52.9129 0.0000 7.7838
v  -29.7838 0.0000 7.7838
v  -29.7838 0.0000 -16.8784
v  -52.9129 0.0000 -16.8784
v  -41.3484 0.0000 -4.5473
# 6 vertices

vn 0.0000 1.0000 -0.0000
vn -0.6358 -0.4291 0.6415
vn 0.6358 -0.4291 0.6415
vn 0.6358 -0.4291 -0.6415
vn -0.6358 -0.4291 -0.6415
vn 0.0000 -1.0000 -0.0000
# 6 vertex normals

vt 0.5000 1.0000 0.0000
vt 0.0000 0.0000 0.0000
vt 1.0000 0.0000 0.0000
vt 0.0311 0.0000 0.0000
vt 1.0311 0.0000 0.0000
vt 0.0000 1.0000 0.0000
vt 0.5000 0.5000 0.0000
vt 1.0000 1.0000 0.0000
# 8 texture coords

o Pyramide001
g Pyramide001
usemtl Material__2
s 4
f 1/1/1 2/2/2 3/3/3 
s 2
f 1/1/1 3/4/3 4/5/4 
s 16
f 1/1/1 4/2/4 5/3/5 
s 32
f 1/1/1 5/4/5 2/5/2 
s 8
f 2/6/2 6/7/6 3/8/3 
f 3/8/3 6/7/6 4/3/4 
f 4/3/4 6/7/6 5/2/5 
f 5/2/5 6/7/6 2/6/2 
# 0 polygons - 8 triangles

#
# object Pyramide002
#

v  -17.8319 31.1473 -4.5473
v  -29.3964 0.0000 7.7838
v  -6.2673 0.0000 7.7838
v  -6.2673 0.0000 -16.8784
v  -29.3964 0.0000 -16.8784
v  -17.8319 0.0000 -4.5473
# 6 vertices

vn 0.0000 1.0000 -0.0000
vn -0.6469 -0.3928 0.6537
vn 0.6469 -0.3928 0.6537
vn 0.6469 -0.3928 -0.6537
vn -0.6469 -0.3928 -0.6537
vn 0.0000 -1.0000 -0.0000
# 6 vertex normals

vt 0.5000 1.0000 0.0000
vt 0.0000 0.0000 0.0000
vt 1.0000 0.0000 0.0000
vt 0.0311 0.0000 0.0000
vt 1.0311 0.0000 0.0000
vt 0.0000 1.0000 0.0000
vt 0.5000 0.5000 0.0000
vt 1.0000 1.0000 0.0000
# 8 texture coords

o Pyramide002
g Pyramide002
usemtl Material__2
s 4
f 7/9/7 8/10/8 9/11/9 
s 2
f 7/9/7 9/12/9 10/13/10 
s 16
f 7/9/7 10/10/10 11/11/11 
s 32
f 7/9/7 11/12/11 8/13/8 
s 8
f 8/14/8 12/15/12 9/16/9 
f 9/16/9 12/15/12 10/11/10 
f 10/11/10 12/15/12 11/10/11 
f 11/10/11 12/15/12 8/14/8 
# 0 polygons - 8 triangles

#
# object Pyramide003
#

v  5.7044 35.8030 -4.5473
v  -5.8602 0.0000 7.7838
v  17.2689 0.0000 7.7838
v  17.2689 0.0000 -16.8784
v  -5.8602 0.0000 -16.8784
v  5.7044 0.0000 -4.5473
# 6 vertices

vn 0.0000 1.0000 -0.0000
vn -0.6407 -0.4136 0.6469
vn 0.6407 -0.4136 0.6469
vn 0.6407 -0.4136 -0.6469
vn -0.6407 -0.4136 -0.6469
vn 0.0000 -1.0000 -0.0000
# 6 vertex normals

vt 0.5000 1.0000 0.0000
vt 0.0000 0.0000 0.0000
vt 1.0000 0.0000 0.0000
vt 0.0311 0.0000 0.0000
vt 1.0311 0.0000 0.0000
vt 0.0000 1.0000 0.0000
vt 0.5000 0.5000 0.0000
vt 1.0000 1.0000 0.0000
# 8 texture coords

o Pyramide003
g Pyramide003
usemtl Material__2
s 4
f 13/17/13 14/18/14 15/19/15 
s 2
f 13/17/13 15/20/15 16/21/16 
s 16
f 13/17/13 16/18/16 17/19/17 
s 32
f 13/17/13 17/20/17 14/21/14 
s 8
f 14/22/14 18/23/18 15/24/15 
f 15/24/15 18/23/18 16/19/16 
f 16/19/16 18/23/18 17/18/17 
f 17/18/17 18/23/18 14/22/14 
# 0 polygons - 8 triangles

#
# object Pyramide004
#

v  29.1667 38.3857 -4.5473
v  17.6022 0.0000 7.7838
v  40.7313 0.0000 7.7838
v  40.7313 0.0000 -16.8784
v  17.6022 0.0000 -16.8784
v  29.1667 0.0000 -4.5473
# 6 vertices

vn 0.0000 1.0000 -0.0000
vn -0.6377 -0.4233 0.6436
vn 0.6377 -0.4233 0.6436
vn 0.6377 -0.4233 -0.6436
vn -0.6377 -0.4233 -0.6436
vn 0.0000 -1.0000 -0.0000
# 6 vertex normals

vt 0.5000 1.0000 0.0000
vt 0.0000 0.0000 0.0000
vt 1.0000 0.0000 0.0000
vt 0.0311 0.0000 0.0000
vt 1.0311 0.0000 0.0000
vt 0.0000 1.0000 0.0000
vt 0.5000 0.5000 0.0000
vt 1.0000 1.0000 0.0000
# 8 texture coords

o Pyramide004
g Pyramide004
usemtl Material__2
s 4
f 19/25/19 20/26/20 21/27/21 
s 2
f 19/25/19 21/28/21 22/29/22 
s 16
f 19/25/19 22/26/22 23/27/23 
s 32
f 19/25/19 23/28/23 20/29/20 
s 8
f 20/30/20 24/31/24 21/32/21 
f 21/32/21 24/31/24 22/27/22 
f 22/27/22 24/31/24 23/26/23 
f 23/26/23 24/31/24 20/30/20 
# 0 polygons - 8 triangles

#
# object Pyramide005
#

v  52.4061 34.7153 -4.5473
v  40.8416 0.0000 7.7838
v  63.9707 0.0000 7.7838
v  63.9707 0.0000 -16.8784
v  40.8416 0.0000 -16.8784
v  52.4061 0.0000 -4.5473
# 6 vertices

vn 0.0000 1.0000 -0.0000
vn -0.6420 -0.4091 0.6484
vn 0.6420 -0.4091 0.6484
vn 0.6420 -0.4091 -0.6484
vn -0.6420 -0.4091 -0.6484
vn 0.0000 -1.0000 -0.0000
# 6 vertex normals

vt 0.5000 1.0000 0.0000
vt 0.0000 0.0000 0.0000
vt 1.0000 0.0000 0.0000
vt 0.0311 0.0000 0.0000
vt 1.0311 0.0000 0.0000
vt 0.0000 1.0000 0.0000
vt 0.5000 0.5000 0.0000
vt 1.0000 1.0000 0.0000
# 8 texture coords

o Pyramide005
g Pyramide005
usemtl Material__2
s 4
f 25/33/25 26/34/26 27/35/27 
s 2
f 25/33/25 27/36/27 28/37/28 
s 16
f 25/33/25 28/34/28 29/35/29 
s 32
f 25/33/25 29/36/29 26/37/26 
s 8
f 26/38/26 30/39/30 27/40/27 
f 27/40/27 30/39/30 28/35/28 
f 28/35/28 30/39/30 29/34/29 
f 29/34/29 30/39/30 26/38/26 
# 0 polygons - 8 triangles

